<svg xmlns="http://www.w3.org/2000/svg" viewBox="0 0 116.35 89.85"><defs><style>.cls-1{fill:#063537;}.cls-2{fill:#ff5b00;}</style></defs><g id="Capa_2" data-name="Capa 2"><g id="OBJECTS"><path class="cls-1" d="M114.26,1a5.1,5.1,0,0,0-4.55-.75L86.18,7.68a3.29,3.29,0,0,0-.47.19,4.62,4.62,0,0,0-.47-.19L61.71.28a22.65,22.65,0,0,0-7.07,0L31.11,7.68a4.62,4.62,0,0,0-.47.19,3.29,3.29,0,0,0-.47-.19L6.64.28A5.11,5.11,0,0,0,0,5.15V77.34a5.09,5.09,0,0,0,3.58,4.87l23.53,7.4a4.93,4.93,0,0,0,1.52.24h4a5,5,0,0,0,1.53-.24l23.53-7.4a4.62,4.62,0,0,0,.47-.19,3.71,3.71,0,0,0,.46.19l23.53,7.4a5,5,0,0,0,1.53.24h4a4.93,4.93,0,0,0,1.52-.24l23.53-7.4a5.09,5.09,0,0,0,3.58-4.87V5.15A5.12,5.12,0,0,0,114.26,1Zm-4.13,5.63v9.78a16.69,16.69,0,0,0-2.43-.7,10.36,10.36,0,0,0-8.93,2.06,13.59,13.59,0,0,0-3.22,4.82,19.45,19.45,0,0,1-.92,1.83,10.34,10.34,0,0,1-5.81,4.25V13.36ZM71.23,9.79c-.06,2.2-1.83,4.34-3.34,5.75-.75.7-1.55,1.37-2.41,2.08a38,38,0,0,0-4.2,3.89V6.66ZM44.81,63.86a16.65,16.65,0,0,0-11.06-7.67V36.49a10.34,10.34,0,0,1,2.89,2.39c.44.53.86,1.17,1.31,1.84a14.84,14.84,0,0,0,4.25,4.66,9.57,9.57,0,0,0,5.19,1.45A12.28,12.28,0,0,0,55.07,44V76.52l-6.45,2A26.7,26.7,0,0,0,44.81,63.86ZM55.07,6.66V33.31a15.73,15.73,0,0,1-3.9,5.85c-1.51,1.25-4,2-5.63,1a9.51,9.51,0,0,1-2.41-2.86c-.52-.77-1.05-1.57-1.69-2.35a17.76,17.76,0,0,0-7.69-5.25V13.36ZM27.53,28.22c-.47,0-.93-.1-1.37-.13l-.36,0a6.44,6.44,0,0,1-2.09-.35,4.77,4.77,0,0,1-1.05-1,15.67,15.67,0,0,1-3.83-7.78c-.3-2.3,1.51-5.43,3.11-7.34l5.59,1.76ZM15,9.43a14.82,14.82,0,0,0-2.34,10.32,21.4,21.4,0,0,0,5.28,11,10,10,0,0,0,2.84,2.43,11.15,11.15,0,0,0,4.56,1.06l.33,0c.59,0,1.21.12,1.85.21V56.72c-.56.18-1.11.38-1.64.58a11,11,0,0,1-3.23.87c-1.89,0-3.95-2-4.43-4.36a18.71,18.71,0,0,1-.23-2,23.33,23.33,0,0,0-.39-3A10.86,10.86,0,0,0,10.73,41a9.61,9.61,0,0,0-4.51-.48V6.66ZM6.22,76.52V46.88a3,3,0,0,1,2.42-.06,4.55,4.55,0,0,1,2.9,3.3,16.39,16.39,0,0,1,.26,2.16A23.33,23.33,0,0,0,12.13,55c1.09,5.45,5.68,9.5,10.67,9.36a14.66,14.66,0,0,0,4.73-1.07V83.23Zm27.53,6.71V62.54a10.83,10.83,0,0,1,5.82,4.66c2.19,3.44,3.17,8.28,2.73,13.34Zm27.53-6.71V34.59l.09-.2.5-1.24a27.59,27.59,0,0,1,3.53-6.92,27.75,27.75,0,0,1,4.06-3.83c.88-.73,1.8-1.49,2.68-2.32a15.87,15.87,0,0,0,5.1-8.4l5.36,1.68V30c-.67.07-1.36.14-2.09.19h-.12c-2.75.19-6.17.43-8.89,2.62-2,1.62-4.34,4.93-4,11.49.34,5.78,2.29,10.23,5.65,12.87,2.51,2,5.5,2.72,8.14,3.37l1.27.32V83.23Zm21.32-22A15,15,0,0,1,77,52.31c-2.42-1.91-3.12-5.59-3.28-8.35-.11-1.77,0-4.94,1.65-6.29,1.2-1,3.35-1.11,5.43-1.26H81l1.65-.14Zm6.22,28.76V63.65A21.1,21.1,0,0,1,97.9,80.37ZM104,78.44A27.12,27.12,0,0,0,88.82,56.5V35.2c4.32-1.14,8.57-3.29,11.13-7.54.49-.82.87-1.63,1.24-2.41a8.5,8.5,0,0,1,1.67-2.77,4.43,4.43,0,0,1,3.64-.64,14.43,14.43,0,0,1,3.63,1.4V76.52Z"/><path class="cls-2" d="M18.83,18.94a15.67,15.67,0,0,0,3.83,7.78,4.77,4.77,0,0,0,1.05,1,6.44,6.44,0,0,0,2.09.35l.36,0c.44,0,.9.08,1.37.13V13.36L21.94,11.6C20.34,13.51,18.53,16.64,18.83,18.94Z"/><path class="cls-2" d="M33.75,62.54V83.23l8.55-2.69c.44-5.06-.54-9.9-2.73-13.34A10.83,10.83,0,0,0,33.75,62.54Z"/><path class="cls-2" d="M65.48,17.62c.86-.71,1.66-1.38,2.41-2.08,1.51-1.41,3.28-3.55,3.34-5.75l-10-3.13V21.51A38,38,0,0,1,65.48,17.62Z"/><path class="cls-2" d="M12.13,55a23.33,23.33,0,0,1-.33-2.75,16.39,16.39,0,0,0-.26-2.16,4.55,4.55,0,0,0-2.9-3.3,3,3,0,0,0-2.42.06V76.52l21.31,6.71V63.32a14.66,14.66,0,0,1-4.73,1.07C17.81,64.53,13.22,60.48,12.13,55Z"/><path class="cls-2" d="M102.86,22.48a8.5,8.5,0,0,0-1.67,2.77c-.37.78-.75,1.59-1.24,2.41-2.56,4.25-6.81,6.4-11.13,7.54V56.5A27.12,27.12,0,0,1,104,78.44l6.09-1.92V23.24a14.43,14.43,0,0,0-3.63-1.4A4.43,4.43,0,0,0,102.86,22.48Z"/><path class="cls-2" d="M33.75,29.67a17.76,17.76,0,0,1,7.69,5.25c.64.78,1.17,1.58,1.69,2.35a9.51,9.51,0,0,0,2.41,2.86c1.64,1,4.12.28,5.63-1a15.73,15.73,0,0,0,3.9-5.85V6.66l-21.32,6.7Z"/><path class="cls-2" d="M80.83,36.41c-2.08.15-4.23.3-5.43,1.26C73.72,39,73.64,42.19,73.75,44c.16,2.76.86,6.44,3.28,8.35a15,15,0,0,0,5.57,2.16V36.26L81,36.4Z"/></g></g></svg>