<svg xmlns="http://www.w3.org/2000/svg" viewBox="0 0 65.94451 93.9613"><defs><style>.cls-1{fill:#063537;}.cls-2{fill:#ff5b00;}</style></defs><g id="Capa_2" data-name="Capa 2"><g id="OBJECTS"><path class="cls-1" d="M63.3503,17.2165l-8.3007-6.4662a10.69523,10.69523,0,0,0-6.5399-2.2464H43.8164V7.0928A7.10053,7.10053,0,0,0,36.724,0H31.3109a7.10053,7.10053,0,0,0-7.09239,7.0928V8.5039H8.2348A8.244,8.244,0,0,0,0,16.7386V28.3157a8.24417,8.24417,0,0,0,8.2348,8.2351H24.21851V48.124H17.4348a10.69051,10.69051,0,0,0-6.5399,2.2464L2.5943,56.8366a6.73241,6.73241,0,0,0,.0009,10.6217l8.2997,6.4653a10.689,10.689,0,0,0,6.5399,2.2473h6.78371v13.414a4.37629,4.37629,0,0,0,4.37639,4.3764H39.44a4.3763,4.3763,0,0,0,4.3764-4.3764V76.1709H57.7089a8.24435,8.24435,0,0,0,8.23561-8.2351V56.3587A8.24426,8.24426,0,0,0,57.7089,48.124H43.8164V36.5508h4.6933a10.69533,10.69533,0,0,0,6.5399-2.2465l8.3007-6.4661a6.73327,6.73327,0,0,0,0-10.6217ZM30.4357,7.0928a.87665.87665,0,0,1,.8752-.8756H36.724a.87665.87665,0,0,1,.8752.8756V8.5039H30.4357Zm7.1635,80.6513H30.4357V76.1709h7.1635ZM57.7089,54.3412a2.0203,2.0203,0,0,1,2.0184,2.0175V67.9358a2.02039,2.02039,0,0,1-2.0184,2.0179H17.4348a4.44419,4.44419,0,0,1-2.7191-.9346L6.415,62.5534a.51491.51491,0,0,1,.0009-.8119l8.30061-6.4666a4.44489,4.44489,0,0,1,2.71829-.9337H57.7089ZM37.5992,48.124H30.4357V36.5508h7.1635ZM59.5287,22.9333,51.228,29.3994a4.4423,4.4423,0,0,1-2.7183.9342H8.2348a2.01962,2.01962,0,0,1-2.0175-2.0179V16.7386a2.01953,2.01953,0,0,1,2.0175-2.0175H48.5097a4.44283,4.44283,0,0,1,2.7183.9341l8.30151,6.4662a.51484.51484,0,0,1-.00081.8119Z"/><path class="cls-2" d="M6.2173,28.3157a2.01962,2.01962,0,0,0,2.0175,2.0179H48.5097a4.44209,4.44209,0,0,0,2.7183-.9342l8.3007-6.4661a.49618.49618,0,0,0,.1986-.406H6.2173Z"/><path class="cls-2" d="M6.2173,62.1475a.4975.4975,0,0,0,.1977.4059l8.3007,6.4657a4.4444,4.4444,0,0,0,2.7191.9346H57.709a2.02037,2.02037,0,0,0,2.0183-2.0179V62.1475Z"/></g></g></svg>