<svg xmlns="http://www.w3.org/2000/svg" viewBox="0 0 105.6262 105.6262"><defs><style>.cls-1{fill:#ff5b00;}.cls-2{fill:#063537;}</style></defs><g id="Capa_2" data-name="Capa 2"><g id="OBJECTS"><path class="cls-1" d="M52.8141,31.5019A21.3102,21.3102,0,1,0,74.1243,52.8121,21.31018,21.31018,0,0,0,52.8141,31.5019Zm.3858,26.9213c-2.536,1.6941-4.7166,3.85-7.4015,5.3291a2.19282,2.19282,0,0,1-2.9769-2.9769,67.77573,67.77573,0,0,0,4.2216-8.0659,2.17747,2.17747,0,0,1,4.233,1.012,20.93171,20.93171,0,0,0,1.9238.9443C54.8237,55.3522,54.3973,57.6234,53.1999,58.4232Z"/><path class="cls-2" d="M102.2812,47.5834,90.7315,42.2499A39.51154,39.51154,0,0,0,63.3763,14.8947L58.0428,3.345a5.76073,5.76073,0,0,0-10.4595,0L42.2498,14.8947A39.51158,39.51158,0,0,0,14.8947,42.2499L3.345,47.5834a5.76073,5.76073,0,0,0,0,10.4595l11.5497,5.3335A39.51163,39.51163,0,0,0,42.2498,90.7315l5.3335,11.5498a5.76081,5.76081,0,0,0,10.4595,0l5.3335-11.5498A39.51158,39.51158,0,0,0,90.7315,63.3764l11.5497-5.3335a5.76073,5.76073,0,0,0,0-10.4595ZM76.8036,72.407a3.10854,3.10854,0,0,0-4.3962,0l-.0004.0004a3.10854,3.10854,0,0,0,0,4.3962l1.5354,1.5354a33.00213,33.00213,0,0,1-18.0207,7.476V83.6322a3.1086,3.1086,0,1,0-6.2172,0V85.815a33.00213,33.00213,0,0,1-18.0207-7.476l1.5354-1.5354a3.10854,3.10854,0,0,0,0-4.3962l-.0004-.0004a3.10854,3.10854,0,0,0-4.3962,0l-1.5354,1.5354a33.00139,33.00139,0,0,1-7.4759-18.0207h2.1828a3.1086,3.1086,0,0,0,0-6.2172H19.8113a33.00139,33.00139,0,0,1,7.4759-18.0206l1.5354,1.5354a3.10872,3.10872,0,0,0,4.3962,0l.0004-.0005a3.10854,3.10854,0,0,0,0-4.3962l-1.5354-1.5354a33.00275,33.00275,0,0,1,18.0207-7.4759v2.1832a3.1086,3.1086,0,1,0,6.2172,0V19.8113a33.00275,33.00275,0,0,1,18.0207,7.4759L72.407,28.8226a3.10854,3.10854,0,0,0,0,4.3962l.0004.0005a3.10872,3.10872,0,0,0,4.3962,0l1.5354-1.5354a33.00213,33.00213,0,0,1,7.4759,18.0206H83.6317a3.1086,3.1086,0,1,0,0,6.2172h2.1832A33.00213,33.00213,0,0,1,78.339,73.9424ZM52.8131,6.85l3.1067,6.7277c-1.0263-.0806-2.0601-.134-3.1067-.134s-2.0804.0534-3.1067.134ZM6.85,52.8131l6.7276-3.1067c-.0805,1.0263-.134,2.0601-.134,3.1067,0,1.0467.0535,2.0804.134,3.1068ZM52.8131,98.7763l-3.1067-6.7277c1.0263.0805,2.0601.134,3.1067.134s2.0804-.0535,3.1067-.134ZM92.0485,55.9199c.0806-1.0264.134-2.0601.134-3.1068,0-1.0466-.0534-2.0804-.134-3.1067l6.7277,3.1067Z"/><path class="cls-2" d="M65.3768,34.6962,46.8444,44.5463a3.65486,3.65486,0,0,0-1.229,1.0692,3.65892,3.65892,0,0,0-1.0695,1.2293l-9.8498,18.532a4.10321,4.10321,0,0,0,5.5533,5.5533l18.5324-9.8502a3.65567,3.65567,0,0,0,1.229-1.0691,3.65831,3.65831,0,0,0,1.0695-1.2294l9.8498-18.532a4.10643,4.10643,0,0,0-5.5533-5.5532ZM48.4154,52.8121l4.3987,4.3987-9.3893,4.9906Z"/></g></g></svg>